<?xml version="1.0" encoding="UTF-8"?>
<svg version="1.1" xmlns="http://www.w3.org/2000/svg" width="301" height="101">
<path d="M0 0 C99.33 0 198.66 0 301 0 C301 33.33 301 66.66 301 101 C201.67 101 102.34 101 0 101 C0 67.67 0 34.34 0 0 Z " fill="#FCFDFE" transform="translate(0,0)"/>
<path d="M0 0 C1.9453125 1.3203125 1.9453125 1.3203125 4.7578125 3.7578125 C4.7578125 4.4178125 4.7578125 5.0778125 4.7578125 5.7578125 C3.75814453 5.66693359 3.75814453 5.66693359 2.73828125 5.57421875 C1.81660156 5.49042969 0.89492187 5.40664062 -0.0546875 5.3203125 C-0.94800781 5.23910156 -1.84132812 5.15789063 -2.76171875 5.07421875 C-4.48455078 4.91759766 -4.48455078 4.91759766 -6.2421875 4.7578125 C-11.6871875 4.2628125 -11.6871875 4.2628125 -17.2421875 3.7578125 C-17.2421875 11.6778125 -17.2421875 19.5978125 -17.2421875 27.7578125 C-17.9021875 27.7578125 -18.5621875 27.7578125 -19.2421875 27.7578125 C-19.7371875 16.3728125 -19.7371875 16.3728125 -20.2421875 4.7578125 C-31.1321875 5.2528125 -31.1321875 5.2528125 -42.2421875 5.7578125 C-37.73206604 0.12016068 -37.73206604 0.12016068 -33.7421875 -1.4921875 C-32.989375 -1.80671875 -32.2365625 -2.12125 -31.4609375 -2.4453125 C-21.41243663 -6.05428112 -9.37412156 -5.19332867 0 0 Z " fill="#5385DA" transform="translate(169.2421875,10.2421875)"/>
<path d="M0 0 C0 0.66 0 1.32 0 2 C-1.98 2 -3.96 2 -6 2 C-6 3.32 -6 4.64 -6 6 C-4.02 6 -2.04 6 0 6 C0 6.99 0 7.98 0 9 C-1.98 9 -3.96 9 -6 9 C-6 10.32 -6 11.64 -6 13 C-3.69 13 -1.38 13 1 13 C1 13.99 1 14.98 1 16 C-2.63 16 -6.26 16 -10 16 C-10.33 15.01 -10.66 14.02 -11 13 C-11.33 13.99 -11.66 14.98 -12 16 C-19.16883117 16.47792208 -19.16883117 16.47792208 -22.5 14.5625 C-24.73822793 10.73886062 -24.87881234 7.3148894 -24 3 C-18.804393 -4.10066289 -7.62151672 -0.98342151 0 0 Z " fill="#F4FBFE" transform="translate(178,79)"/>
<path d="M0 0 C1.32675617 4.52502932 0.57249199 8.32125901 -0.4375 12.8125 C-0.58509766 13.50537109 -0.73269531 14.19824219 -0.88476562 14.91210938 C-1.24775612 16.60996815 -1.62268223 18.30526763 -2 20 C-8.55066413 19.07737125 -12.90708138 17.31322585 -17.375 12.375 C-19.93709709 8.63039656 -20.09843921 6.52820365 -20 2 C-17.60468244 1.66254646 -15.20885732 1.3299171 -12.8125 1 C-11.80219727 0.85691406 -11.80219727 0.85691406 -10.77148438 0.7109375 C-7.15335423 0.21675387 -3.65203599 -0.11346131 0 0 Z " fill="#4E84DF" transform="translate(145,17)"/>
<path d="M0 0 C2.20826378 -0.02722517 4.41662638 -0.04649729 6.625 -0.0625 C7.85476562 -0.07410156 9.08453125 -0.08570312 10.3515625 -0.09765625 C13.67723791 -0.00863924 16.74047588 0.36313913 20 1 C20.31227748 4.9034685 20.21324894 7.51534333 18.625 11.125 C15.04682574 15.04395276 10.94141155 17.13562769 6 19 C5.01 19 4.02 19 3 19 C2.49161436 16.96040523 1.99366114 14.91820862 1.5 12.875 C1.2215625 11.73804688 0.943125 10.60109375 0.65625 9.4296875 C0.03546235 6.18533302 -0.12006768 3.29185543 0 0 Z " fill="#4F84DD" transform="translate(156,18)"/>
<path d="M0 0 C9.18762089 -0.48355899 9.18762089 -0.48355899 12.625 1.5625 C14.54211763 4.96102671 14.54861638 7.15968535 14 11 C11.78136971 13.90717073 10.48055071 14.83981643 7 16 C4.69 16 2.38 16 0 16 C0 10.72 0 5.44 0 0 Z " fill="#5A85CC" transform="translate(91,79)"/>
<path d="M0 0 C1.588125 -0.061875 3.17625 -0.12375 4.8125 -0.1875 C6.15248047 -0.23970703 6.15248047 -0.23970703 7.51953125 -0.29296875 C10 0 10 0 11.80078125 1.23046875 C13.31117943 3.45916704 13.40177304 4.82269557 13.375 7.5 C13.38273438 8.2734375 13.39046875 9.046875 13.3984375 9.84375 C12.9056562 12.51056642 12.1276451 13.36181317 10 15 C7 16 7 16 0 16 C0 10.72 0 5.44 0 0 Z " fill="#6F93D0" transform="translate(182,79)"/>
<path d="M0 0 C2.31 0 4.62 0 7 0 C12.55580866 10.37357631 12.55580866 10.37357631 13 16 C11.02 16 9.04 16 7 16 C6.01 13.69 5.02 11.38 4 9 C3.01 11.31 2.02 13.62 1 16 C-1.31 16 -3.62 16 -6 16 C-4.43551329 10.3856009 -2.83604813 5.13189662 0 0 Z " fill="#5386DB" transform="translate(171,46)"/>
<path d="M0 0 C2.64 0 5.28 0 8 0 C9.0044134 2.2898234 10.00367612 4.5816599 11 6.875 C11.28617188 7.52597656 11.57234375 8.17695312 11.8671875 8.84765625 C14 13.7734375 14 13.7734375 14 16 C11.69 16 9.38 16 7 16 C6.01 13.69 5.02 11.38 4 9 C3.01 11.31 2.02 13.62 1 16 C-0.98 16 -2.96 16 -5 16 C-4.39363767 10.23955788 -2.24341721 5.27985631 0 0 Z " fill="#5185DA" transform="translate(137,46)"/>
<path d="M0 0 C2.31 0 4.62 0 7 0 C9.45855991 5.26322777 11.56176509 10.36691325 13 16 C11.02 16 9.04 16 7 16 C6.01 13.36 5.02 10.72 4 8 C2.68 10.64 1.36 13.28 0 16 C-1.98 16 -3.96 16 -6 16 C-4.25192871 10.53262809 -2.34205919 5.24175152 0 0 Z " fill="#5B8AD6" transform="translate(53,79)"/>
<path d="M0 0 C2.64 0 5.28 0 8 0 C8.8394882 2.10171867 9.67139656 4.20646625 10.5 6.3125 C10.9640625 7.48425781 11.428125 8.65601562 11.90625 9.86328125 C13 13 13 13 13 16 C11.02 16 9.04 16 7 16 C6.34 13.03 5.68 10.06 5 7 C4.34 7 3.68 7 3 7 C2.34 9.97 1.68 12.94 1 16 C-0.98 16 -2.96 16 -5 16 C-4.39363767 10.23955788 -2.24341721 5.27985631 0 0 Z " fill="#5687DA" transform="translate(21,79)"/>
<path d="M0 0 C5.28 0 10.56 0 16 0 C16 1.65 16 3.3 16 5 C14.35 5 12.7 5 11 5 C11 8.96 11 12.92 11 17 C8.69 17 6.38 17 4 17 C4 13.04 4 9.08 4 5 C2.68 5 1.36 5 0 5 C0 3.35 0 1.7 0 0 Z " fill="#4D82DC" transform="translate(117,46)"/>
<path d="M0 0 C5.28 0 10.56 0 16 0 C16 1.65 16 3.3 16 5 C14.68 5 13.36 5 12 5 C12 8.96 12 12.92 12 17 C9.69 17 7.38 17 5 17 C5 13.04 5 9.08 5 5 C3.35 5 1.7 5 0 5 C0 3.35 0 1.7 0 0 Z " fill="#6791D7" transform="translate(150,46)"/>
<path d="M0 0 C1.65 0 3.3 0 5 0 C5.99 3.3 6.98 6.6 8 10 C9.32 6.7 10.64 3.4 12 0 C13.32 0 14.64 0 16 0 C16.91657981 5.38490641 17.11138159 10.54230189 17 16 C16.01 16 15.02 16 14 16 C13.67 12.04 13.34 8.08 13 4 C12.01 7.3 11.02 10.6 10 14 C8.68 14 7.36 14 6 14 C5.34 12.02 4.68 10.04 4 8 C3.67 10.64 3.34 13.28 3 16 C2.01 16 1.02 16 0 16 C0 10.72 0 5.44 0 0 Z " fill="#618ACE" transform="translate(270,79)"/>
<path d="M0 0 C4.95 0 9.9 0 15 0 C15 1.32 15 2.64 15 4 C13.68 4 12.36 4 11 4 C11 7.96 11 11.92 11 16 C8.69 16 6.38 16 4 16 C4 12.04 4 8.08 4 4 C2.68 4 1.36 4 0 4 C0 2.68 0 1.36 0 0 Z " fill="#4E82D8" transform="translate(2,79)"/>
<path d="M0 0 C5.28 0 10.56 0 16 0 C16 1.32 16 2.64 16 4 C14.35 4 12.7 4 11 4 C11 7.96 11 11.92 11 16 C9.02 16 7.04 16 5 16 C5 12.04 5 8.08 5 4 C3.35 4 1.7 4 0 4 C0 2.68 0 1.36 0 0 Z " fill="#5B86D1" transform="translate(33,79)"/>
<path d="M0 0 C6.93 0 13.86 0 21 0 C21 0.33 21 0.66 21 1 C18.36 1 15.72 1 13 1 C13 6.28 13 11.56 13 17 C12.67 16.01 12.34 15.02 12 14 C9.03 14 6.06 14 3 14 C3 12.68 3 11.36 3 10 C4.98 10 6.96 10 9 10 C9 9.01 9 8.02 9 7 C7.02 7 5.04 7 3 7 C3 5.68 3 4.36 3 3 C4.98 3 6.96 3 9 3 C9 2.34 9 1.68 9 1 C6.03 1 3.06 1 0 1 C0 0.67 0 0.34 0 0 Z " fill="#E5F1FD" transform="translate(169,78)"/>
<path d="M0 0 C1.32 0 2.64 0 4 0 C4.83719383 2.29032311 5.6698929 4.58210957 6.5 6.875 C6.73847656 7.52597656 6.97695312 8.17695312 7.22265625 8.84765625 C9 13.7734375 9 13.7734375 9 16 C7.68 16 6.36 16 5 16 C4.67 14.68 4.34 13.36 4 12 C2.35 12 0.7 12 -1 12 C-1.33 13.32 -1.66 14.64 -2 16 C-2.99 16 -3.98 16 -5 16 C-4.49228528 10.03435204 -2.61407872 5.36190101 0 0 Z " fill="#5C87CF" transform="translate(80,79)"/>
<path d="M0 0 C1.65 0 3.3 0 5 0 C5.83719383 2.29032311 6.6698929 4.58210957 7.5 6.875 C7.73847656 7.52597656 7.97695312 8.17695312 8.22265625 8.84765625 C10 13.7734375 10 13.7734375 10 16 C8.0625 15.6875 8.0625 15.6875 6 15 C5.67 14.01 5.34 13.02 5 12 C3.35 12 1.7 12 0 12 C-0.33 13.32 -0.66 14.64 -1 16 C-1.99 16 -2.98 16 -4 16 C-2.84941444 10.60204011 -1.57578241 5.29012667 0 0 Z " fill="#618ACF" transform="translate(125,79)"/>
<path d="M0 0 C1 1 1 1 1.11352539 3.22485352 C1.10828857 4.18319092 1.10305176 5.14152832 1.09765625 6.12890625 C1.09443359 7.16337891 1.09121094 8.19785156 1.08789062 9.26367188 C1.07951172 10.35228516 1.07113281 11.44089844 1.0625 12.5625 C1.05798828 13.65498047 1.05347656 14.74746094 1.04882812 15.87304688 C1.03699826 18.58208495 1.02051543 21.29101599 1 24 C0.67 24 0.34 24 0 24 C-0.495 14.595 -0.495 14.595 -1 5 C-1.66 7.31 -2.32 9.62 -3 12 C-3.82638376 9.10765685 -4 7.11257569 -4 4 C-13.405 4.495 -13.405 4.495 -23 5 C-23 4.01 -23 3.02 -23 2 C-6.57894737 -0.39473684 -6.57894737 -0.39473684 0 0 Z " fill="#DAEAFC" transform="translate(149,14)"/>
<path d="M0 0 C4 1 4 1 5.484375 2.84765625 C5.90203125 3.57855469 6.3196875 4.30945313 6.75 5.0625 C7.39195312 6.16271484 7.39195312 6.16271484 8.046875 7.28515625 C8.36140625 7.85105469 8.6759375 8.41695312 9 9 C9.33 6.03 9.66 3.06 10 0 C10.66 0 11.32 0 12 0 C12 5.28 12 10.56 12 16 C11.01 16 10.02 16 9 16 C7.02 12.37 5.04 8.74 3 5 C2.67 8.63 2.34 12.26 2 16 C1.34 16 0.68 16 0 16 C0 10.72 0 5.44 0 0 Z " fill="#5B86D0" transform="translate(138,79)"/>
<path d="M0 0 C0 0.66 0 1.32 0 2 C-0.99 2 -1.98 2 -3 2 C-3 2.66 -3 3.32 -3 4 C-1.30230469 3.98259766 -1.30230469 3.98259766 0.4296875 3.96484375 C1.91145669 3.95546546 3.39322765 3.9463653 4.875 3.9375 C5.62136719 3.92912109 6.36773437 3.92074219 7.13671875 3.91210938 C12.7734375 3.88671875 12.7734375 3.88671875 15 5 C15 12.92 15 20.84 15 29 C14.34 29 13.68 29 13 29 C12.505 17.615 12.505 17.615 12 6 C1.11 6.495 1.11 6.495 -10 7 C-4.4 0 -4.4 0 0 0 Z " fill="#5682CC" transform="translate(137,9)"/>
<path d="M0 0 C2.97 0 5.94 0 9 0 C9 0.66 9 1.32 9 2 C7.02 2 5.04 2 3 2 C3 3.32 3 4.64 3 6 C4.98 6 6.96 6 9 6 C9 6.99 9 7.98 9 9 C7.02 9 5.04 9 3 9 C3 10.32 3 11.64 3 13 C5.31 13 7.62 13 10 13 C10 13.99 10 14.98 10 16 C6.7 16 3.4 16 0 16 C0 10.72 0 5.44 0 0 Z " fill="#6E92D0" transform="translate(257,79)"/>
<path d="M0 0 C2.97 0 5.94 0 9 0 C9 0.66 9 1.32 9 2 C7.02 2 5.04 2 3 2 C3 3.32 3 4.64 3 6 C4.98 6 6.96 6 9 6 C9 6.99 9 7.98 9 9 C7.02 9 5.04 9 3 9 C3 10.32 3 11.64 3 13 C5.31 13 7.62 13 10 13 C10 13.99 10 14.98 10 16 C6.7 16 3.4 16 0 16 C0 10.72 0 5.44 0 0 Z " fill="#678CCA" transform="translate(169,79)"/>
<path d="M0 0 C2.95887459 -0.08069658 5.9155659 -0.14034665 8.875 -0.1875 C9.71675781 -0.21263672 10.55851563 -0.23777344 11.42578125 -0.26367188 C12.23144531 -0.27333984 13.03710938 -0.28300781 13.8671875 -0.29296875 C14.98262939 -0.31653442 14.98262939 -0.31653442 16.12060547 -0.34057617 C17.05090576 -0.17199097 17.05090576 -0.17199097 18 0 C20 3 20 3 19.8125 5.6875 C18.84646148 9.62596474 17.49472953 13.23068205 16 17 C15.01 16.67 14.02 16.34 13 16 C13 12.37 13 8.74 13 5 C14.32 5 15.64 5 17 5 C17 3.68 17 2.36 17 1 C12.05 1 7.1 1 2 1 C2 2.32 2 3.64 2 5 C3.32 5.33 4.64 5.66 6 6 C4.02 6 2.04 6 0 6 C0 4.02 0 2.04 0 0 Z " fill="#DAEBFB" transform="translate(0,78)"/>
<path d="M0 0 C12.375 0 12.375 0 17 1 C16.01 2.485 16.01 2.485 15 4 C12.3984375 4.29296875 12.3984375 4.29296875 9.375 4.1875 C7.87066406 4.14689453 7.87066406 4.14689453 6.3359375 4.10546875 C5.17964844 4.05326172 5.17964844 4.05326172 4 4 C4.33 7.3 4.66 10.6 5 14 C3 11 3 11 2 6 C1.67 11.94 1.34 17.88 1 24 C0.67 24 0.34 24 0 24 C0 16.08 0 8.16 0 0 Z " fill="#E5F5FD" transform="translate(152,14)"/>
<path d="M0 0 C1.890625 0.24609375 1.890625 0.24609375 4 1 C5.44963687 3.55850089 6.10400905 6.1776285 7 9 C7.99 6.03 8.98 3.06 10 0 C10.99 0 11.98 0 13 0 C12.39363767 5.76044212 10.24341721 10.72014369 8 16 C7.01 16 6.02 16 5 16 C4.16280617 13.70967689 3.3301071 11.41789043 2.5 9.125 C2.14228516 8.14853516 2.14228516 8.14853516 1.77734375 7.15234375 C0 2.2265625 0 2.2265625 0 0 Z " fill="#638ACD" transform="translate(107,79)"/>
<path d="M0 0 C0.33 0.99 0.66 1.98 1 3 C-0.7015625 3.2165625 -0.7015625 3.2165625 -2.4375 3.4375 C-5.80777201 3.61171478 -5.80777201 3.61171478 -7 5 C-7.16666667 8.5 -7.16666667 8.5 -7 12 C-5.03177114 13.96822886 -1.65191291 13.66248381 1 14 C1 14.99 1 15.98 1 17 C-6.16883117 17.47792208 -6.16883117 17.47792208 -9.5 15.5625 C-11.72920717 11.75427109 -11.90705593 8.29865635 -11 4 C-7.70034726 0.02100699 -5.03973765 -0.4688128 0 0 Z " fill="#6B91D1" transform="translate(165,78)"/>
<path d="M0 0 C0.33 0.99 0.66 1.98 1 3 C-0.98 3 -2.96 3 -5 3 C-3.66667905 6.99996286 -1.5042173 7.83782337 2 10 C1.25 14.75 1.25 14.75 -1 17 C-4.125 17.125 -4.125 17.125 -7 17 C-7.33 16.01 -7.66 15.02 -8 14 C-5.69 14 -3.38 14 -1 14 C-1.73976471 10.7074288 -1.73976471 10.7074288 -5.0625 9.125 C-8 7 -8 7 -8.5625 4.375 C-7.45234892 -0.31230456 -4.13523419 -0.22352617 0 0 Z " fill="#658BCF" transform="translate(239,78)"/>
<path d="M0 0 C0.78375 0.04125 1.5675 0.0825 2.375 0.125 C2.705 1.115 3.035 2.105 3.375 3.125 C1.395 3.125 -0.585 3.125 -2.625 3.125 C-1.29167905 7.12496286 0.8707827 7.96282337 4.375 10.125 C4 13.0625 4 13.0625 3.375 16.125 C0.66620665 17.47939668 -1.63433268 17.19001451 -4.625 17.125 C-4.955 16.135 -5.285 15.145 -5.625 14.125 C-3.315 14.125 -1.005 14.125 1.375 14.125 C0.04167905 10.12503714 -2.1207827 9.28717663 -5.625 7.125 C-4.53409091 0.21590909 -4.53409091 0.21590909 0 0 Z " fill="#5E86CE" transform="translate(209.625,77.875)"/>
<path d="M0 0 C1.98 0 3.96 0 6 0 C8 2 8 2 8.375 5.4375 C8 9 8 9 6.25 10.9375 C4 12 4 12 0 12 C0 8.04 0 4.08 0 0 Z " fill="#E6F1FD" transform="translate(94,81)"/>
<path d="M0 0 C1.134375 0.020625 2.26875 0.04125 3.4375 0.0625 C3.4375 0.7225 3.4375 1.3825 3.4375 2.0625 C1.4575 2.0625 -0.5225 2.0625 -2.5625 2.0625 C-1.22917905 6.06246286 0.9332827 6.90032337 4.4375 9.0625 C3.6875 13.8125 3.6875 13.8125 1.4375 16.0625 C-2.1875 16.1875 -2.1875 16.1875 -5.5625 16.0625 C-5.5625 15.0725 -5.5625 14.0825 -5.5625 13.0625 C-3.2525 13.0625 -0.9425 13.0625 1.4375 13.0625 C0.10417905 9.06253714 -2.0582827 8.22467663 -5.5625 6.0625 C-4.48849278 0.07874549 -4.48849278 0.07874549 0 0 Z " fill="#5B86CE" transform="translate(295.5625,78.9375)"/>
<path d="M0 0 C0.33 0.99 0.66 1.98 1 3 C2.65 3 4.3 3 6 3 C6 6.63 6 10.26 6 14 C2.52674819 15.1577506 -0.36067448 15.06866652 -4 15 C-4 14.67 -4 14.34 -4 14 C-2.02 14 -0.04 14 2 14 C0.35 9.71 -1.3 5.42 -3 1 C-2.01 0.67 -1.02 0.34 0 0 Z " fill="#E6F3FD" transform="translate(149,48)"/>
<path d="M0 0 C0.99 0 1.98 0 3 0 C3 0.66 3 1.32 3 2 C4.32 2.33 5.64 2.66 7 3 C7 3.66 7 4.32 7 5 C6.34 5 5.68 5 5 5 C5 5.66 5 6.32 5 7 C-0.94 6.67 -6.88 6.34 -13 6 C-13 5.34 -13 4.68 -13 4 C-12.01 4 -11.02 4 -10 4 C-10 3.34 -10 2.68 -10 2 C-6.7 2 -3.4 2 0 2 C0 1.34 0 0.68 0 0 Z " fill="#4983E3" transform="translate(147,7)"/>
<path d="M0 0 C1.65 0 3.3 0 5 0 C7 2 7 2 7.375 5.4375 C7 9 7 9 5.1875 10.9375 C3 12 3 12 0 12 C0 8.04 0 4.08 0 0 Z " fill="#F0FAFE" transform="translate(185,81)"/>
<path d="M0 0 C3.625 -0.1875 3.625 -0.1875 7 0 C7 1.32 7 2.64 7 4 C5.35 4 3.7 4 2 4 C2 7.3 2 10.6 2 14 C0.68 14 -0.64 14 -2 14 C-2.05410687 12.22950311 -2.09284119 10.45853151 -2.125 8.6875 C-2.14820313 7.70136719 -2.17140625 6.71523438 -2.1953125 5.69921875 C-2 3 -2 3 0 0 Z " fill="#4B82E1" transform="translate(159,47)"/>
<path d="M0 0 C5.28 0 10.56 0 16 0 C12.71299843 1.64350079 10.52069985 2.41321669 7 3 C7 3.66 7 4.32 7 5 C6.34 5 5.68 5 5 5 C5 8.63 5 12.26 5 16 C6.98 16 8.96 16 11 16 C11 16.33 11 16.66 11 17 C8.69 17 6.38 17 4 17 C4 13.04 4 9.08 4 5 C2.68 5 1.36 5 0 5 C0 3.35 0 1.7 0 0 Z " fill="#7098DC" transform="translate(117,46)"/>
<path d="M0 0 C0.99 0 1.98 0 3 0 C4.6875 2.5 4.6875 2.5 6 5 C6.99 3.35 7.98 1.7 9 0 C9.99 0.33 10.98 0.66 12 1 C11.360625 1.99 10.72125 2.98 10.0625 4 C7.74593674 8.00282486 7.32145895 11.41921002 7 16 C6.01 16 5.02 16 4 16 C3.87882813 15.34773438 3.75765625 14.69546875 3.6328125 14.0234375 C2.71056011 9.21353658 1.69832723 4.60974535 0 0 Z " fill="#648BC9" transform="translate(217,79)"/>
<path d="M0 0 C3.96 0 7.92 0 12 0 C12 0.66 12 1.32 12 2 C10.35 2 8.7 2 7 2 C7 6.62 7 11.24 7 16 C6.01 16 5.02 16 4 16 C4 11.38 4 6.76 4 2 C2.68 2 1.36 2 0 2 C0 1.34 0 0.68 0 0 Z " fill="#6086C8" transform="translate(243,79)"/>
<path d="M0 0 C2.64 0 5.28 0 8 0 C8 5.61 8 11.22 8 17 C7.01 16.34 6.02 15.68 5 15 C5.33 13.35 5.66 11.7 6 10 C5.01 9.401875 4.02 8.80375 3 8.1875 C2.01 7.465625 1.02 6.74375 0 6 C0 5.01 0 4.02 0 3 C1.98 3 3.96 3 6 3 C6 2.34 6 1.68 6 1 C4.02 1 2.04 1 0 1 C0 0.67 0 0.34 0 0 Z " fill="#E4F1FB" transform="translate(293,78)"/>
<path d="M0 0 C1.65 0 3.3 0 5 0 C5.625 1.75 5.625 1.75 6 4 C5.33333333 5.33333333 4.66666667 6.66666667 4 8 C3.52874765 10.66360025 3.26950675 13.30493254 3 16 C2.01 16 1.02 16 0 16 C0 10.72 0 5.44 0 0 Z " fill="#5A85CE" transform="translate(270,79)"/>
<path d="M0 0 C2.31 0.33 4.62 0.66 7 1 C6.54917531 2.46067199 6.08906463 3.91848032 5.625 5.375 C5.36976562 6.18710938 5.11453125 6.99921875 4.8515625 7.8359375 C4 10 4 10 2 12 C1.34 12 0.68 12 0 12 C0 8.04 0 4.08 0 0 Z " fill="#E8F2FD" transform="translate(44,83)"/>
<path d="M0 0 C1.32 0 2.64 0 4 0 C4.33 0.99 4.66 1.98 5 3 C5.66 3.33 6.32 3.66 7 4 C7 7.63 7 11.26 7 15 C5.35 15.66 3.7 16.32 2 17 C2 11.72 2 6.44 2 1 C1.34 0.67 0.68 0.34 0 0 Z " fill="#DAE9F9" transform="translate(148,78)"/>
<path d="M0 0 C0.33 1.32 0.66 2.64 1 4 C1.66 4 2.32 4 3 4 C2.60446947 5.6510403 2.18286103 7.2958515 1.75 8.9375 C1.51796875 9.85402344 1.2859375 10.77054688 1.046875 11.71484375 C0.70140625 12.46894531 0.3559375 13.22304688 0 14 C-1.32 14.33 -2.64 14.66 -4 15 C-4 11.7 -4 8.4 -4 5 C-2.68 5 -1.36 5 0 5 C0 3.35 0 1.7 0 0 Z " fill="#EAF5FC" transform="translate(166,46)"/>
<path d="M0 0 C-0.33 3.96 -0.66 7.92 -1 12 C-2.32 12 -3.64 12 -5 12 C-5 8.37 -5 4.74 -5 1 C-3 0 -3 0 0 0 Z " fill="#4883E3" transform="translate(44,81)"/>
<path d="M0 0 C0.33 0 0.66 0 1 0 C1 3.3 1 6.6 1 10 C2.32 10 3.64 10 5 10 C5 7.03 5 4.06 5 1 C5.66 0.67 6.32 0.34 7 0 C7 3.96 7 7.92 7 12 C4.69 12 2.38 12 0 12 C0 8.04 0 4.08 0 0 Z " fill="#7499D8" transform="translate(6,83)"/>
<path d="M0 0 C1.32 0 2.64 0 4 0 C4.91657981 5.38490641 5.11138159 10.54230189 5 16 C4.01 16 3.02 16 2 16 C1.93941406 15.01257813 1.87882812 14.02515625 1.81640625 13.0078125 C1.73261719 11.72648437 1.64882813 10.44515625 1.5625 9.125 C1.48128906 7.84882812 1.40007812 6.57265625 1.31640625 5.2578125 C1.20793973 2.11699848 1.20793973 2.11699848 0 0 Z " fill="#698FD2" transform="translate(282,79)"/>
<path d="M0 0 C2 3 2 3 2 7 C0.35 7 -1.3 7 -3 7 C-3 9.31 -3 11.62 -3 14 C-3.99 14 -4.98 14 -6 14 C-5.25 7.375 -5.25 7.375 -3 4 C-2.34 4.33 -1.68 4.66 -1 5 C-0.67 3.35 -0.34 1.7 0 0 Z " fill="#94B4E3" transform="translate(81,81)"/>
<path d="M0 0 C0.33 1.65 0.66 3.3 1 5 C0.67 4.01 0.34 3.02 0 2 C-2.06309376 2.11478413 -4.12548354 2.24226198 -6.1875 2.375 C-7.33605469 2.44460937 -8.48460937 2.51421875 -9.66796875 2.5859375 C-12.85107441 2.98149342 -15.16603909 3.52009857 -18 5 C-18.66 5.99 -19.32 6.98 -20 8 C-20 6.02 -20 4.04 -20 2 C-17.60468244 1.66254646 -15.20885732 1.3299171 -12.8125 1 C-11.80219727 0.85691406 -11.80219727 0.85691406 -10.77148438 0.7109375 C-7.15335423 0.21675387 -3.65203599 -0.11346131 0 0 Z " fill="#678ED0" transform="translate(145,17)"/>
<path d="M0 0 C0 0.66 0 1.32 0 2 C-0.99 2 -1.98 2 -3 2 C-3 2.66 -3 3.32 -3 4 C-0.69 4.33 1.62 4.66 4 5 C4 5.33 4 5.66 4 6 C-0.62 6.33 -5.24 6.66 -10 7 C-4.4 0 -4.4 0 0 0 Z " fill="#638CD1" transform="translate(137,9)"/>
<path d="M0 0 C0.33 0 0.66 0 1 0 C1 4.95 1 9.9 1 15 C2.258125 14.505 3.51625 14.01 4.8125 13.5 C7.50941597 12.43891831 9.04725901 12 12 12 C12 12.66 12 13.32 12 14 C7.46572345 16.19843711 5.56891419 16 0 16 C0 10.72 0 5.44 0 0 Z " fill="#7E9ED3" transform="translate(91,79)"/>
<path d="M0 0 C1.134375 0.020625 2.26875 0.04125 3.4375 0.0625 C3.4375 0.7225 3.4375 1.3825 3.4375 2.0625 C1.4575 2.0625 -0.5225 2.0625 -2.5625 2.0625 C-1.7861068 5.1370356 -1.7861068 5.1370356 0.4375 7.0625 C-1.4375 7.6875 -1.4375 7.6875 -3.5625 8.0625 C-4.2225 7.4025 -4.8825 6.7425 -5.5625 6.0625 C-4.83351201 0.08479846 -4.83351201 0.08479846 0 0 Z " fill="#6186C9" transform="translate(295.5625,78.9375)"/>
<path d="M0 0 C1.98 0.495 1.98 0.495 4 1 C4.625 3.375 4.625 3.375 5 6 C4.34 6.66 3.68 7.32 3 8 C1.68 8 0.36 8 -1 8 C-0.67 5.36 -0.34 2.72 0 0 Z " fill="#96B7E6" transform="translate(127,80)"/>
<path d="M0 0 C2.64 0 5.28 0 8 0 C8.66 1.65 9.32 3.3 10 5 C9.34 5 8.68 5 8 5 C7.67 4.34 7.34 3.68 7 3 C4.69 3.33 2.38 3.66 0 4 C0 5.32 0 6.64 0 8 C-0.66 8 -1.32 8 -2 8 C-1.34 5.36 -0.68 2.72 0 0 Z " fill="#628DD3" transform="translate(137,46)"/>
<path d="M0 0 C0.99 0.33 1.98 0.66 3 1 C2.360625 2.03125 1.72125 3.0625 1.0625 4.125 C-0.81711371 7.38609658 -1.63126531 10.22046944 -2 14 C-2.66 14 -3.32 14 -4 14 C-4.49940808 7.88225104 -3.24900602 4.97504047 0 0 Z " fill="#5D85CD" transform="translate(226,79)"/>
<path d="M0 0 C0.66 0 1.32 0 2 0 C2.03738281 0.84304687 2.07476562 1.68609375 2.11328125 2.5546875 C2.17902344 3.65039062 2.24476563 4.74609375 2.3125 5.875 C2.37050781 6.96554688 2.42851562 8.05609375 2.48828125 9.1796875 C2.74158203 10.57574219 2.74158203 10.57574219 3 12 C3.99 12.66 4.98 13.32 6 14 C4.02 14 2.04 14 0 14 C0 9.38 0 4.76 0 0 Z " fill="#5482CE" transform="translate(182,80)"/>
<path d="M0 0 C2.18975773 3.28463659 2.99806563 6.20696275 4 10 C1.69 10 -0.62 10 -3 10 C-3.33 8.02 -3.66 6.04 -4 4 C-3.34 4 -2.68 4 -2 4 C-1.67 5.32 -1.34 6.64 -1 8 C-0.17361624 5.10765685 0 3.11257569 0 0 Z " fill="#5F8AD4" transform="translate(147,52)"/>
<path d="M0 0 C0.33 1.32 0.66 2.64 1 4 C2.98 4 4.96 4 7 4 C7 4.99 7 5.98 7 7 C5.02 7 3.04 7 1 7 C0.67 8.32 0.34 9.64 0 11 C-1.125 3.375 -1.125 3.375 0 0 Z " fill="#6F96D7" transform="translate(171,81)"/>
<path d="M0 0 C1.67542976 0.28604898 3.34385343 0.61781233 5 1 C4.67 1.99 4.34 2.98 4 4 C3.34 4 2.68 4 2 4 C1.34 5.32 0.68 6.64 0 8 C0 7.01 0 6.02 0 5 C-0.66 5 -1.32 5 -2 5 C-1.125 1.125 -1.125 1.125 0 0 Z " fill="#4E84E3" transform="translate(55,80)"/>
<path d="M0 0 C1.32 0.33 2.64 0.66 4 1 C3.01 1 2.02 1 1 1 C1.33 1.763125 1.66 2.52625 2 3.3125 C3 6 3 6 3 9 C1.68 9.33 0.36 9.66 -1 10 C-1.33 8.02 -1.66 6.04 -2 4 C-1.34 4 -0.68 4 0 4 C0 2.68 0 1.36 0 0 Z " fill="#DFF0FC" transform="translate(106,78)"/>
<path d="M0 0 C3.3 0.33 6.6 0.66 10 1 C9.01 2.485 9.01 2.485 8 4 C5.3984375 4.29296875 5.3984375 4.29296875 2.375 4.1875 C0.87066406 4.14689453 0.87066406 4.14689453 -0.6640625 4.10546875 C-1.82035156 4.05326172 -1.82035156 4.05326172 -3 4 C-1.68 3.34 -0.36 2.68 1 2 C0.67 1.34 0.34 0.68 0 0 Z " fill="#C5DCF4" transform="translate(159,14)"/>
<path d="M0 0 C3.3 0 6.6 0 10 0 C10 0.99 10 1.98 10 3 C8.72125 3.061875 7.4425 3.12375 6.125 3.1875 C5.40570313 3.22230469 4.68640625 3.25710937 3.9453125 3.29296875 C3.30335938 3.19628906 2.66140625 3.09960938 2 3 C1.34 2.01 0.68 1.02 0 0 Z " fill="#7598D1" transform="translate(156,92)"/>
<path d="M0 0 C2.44839588 3.67259383 4 6.54648201 4 11 C2.02 11 0.04 11 -2 11 C-2 10.34 -2 9.68 -2 9 C-1.01 9 -0.02 9 1 9 C0.67 6.03 0.34 3.06 0 0 Z " fill="#6890D1" transform="translate(30,84)"/>
<path d="M0 0 C0.33 0.99 0.66 1.98 1 3 C-0.98 3 -2.96 3 -5 3 C-5.33 3.99 -5.66 4.98 -6 6 C-6.66 4.68 -7.32 3.36 -8 2 C-4.77208445 -0.1519437 -3.71599191 -0.20086443 0 0 Z " fill="#7395D0" transform="translate(239,78)"/>
<path d="M0 0 C0.89203125 0.00902344 1.7840625 0.01804687 2.703125 0.02734375 C3.37859375 0.03894531 4.0540625 0.05054688 4.75 0.0625 C4.75 0.3925 4.75 0.7225 4.75 1.0625 C2.44 1.0625 0.13 1.0625 -2.25 1.0625 C-2.25 1.7225 -2.25 2.3825 -2.25 3.0625 C-5.55 3.0625 -8.85 3.0625 -12.25 3.0625 C-8.04248553 0.25749035 -5.00014586 -0.06579139 0 0 Z " fill="#5D8AD2" transform="translate(149.25,5.9375)"/>
<path d="M0 0 C0.66 0 1.32 0 2 0 C2.33 0.99 2.66 1.98 3 3 C2.01 3.66 1.02 4.32 0 5 C0 5.99 0 6.98 0 8 C-2.475 7.01 -2.475 7.01 -5 6 C-5 5.01 -5 4.02 -5 3 C-3.02 3 -1.04 3 1 3 C0.67 2.01 0.34 1.02 0 0 Z " fill="#E2F1FC" transform="translate(212,78)"/>
<path d="M0 0 C2.31 0 4.62 0 7 0 C7 1.32 7 2.64 7 4 C5.02 4 3.04 4 1 4 C0.67 2.68 0.34 1.36 0 0 Z " fill="#4F83D3" transform="translate(159,47)"/>
<path d="M0 0 C2 1 2 1 4 3 C4.36933645 5.75372909 4.18336678 8.20365661 4 11 C1.32239719 8.32239719 0.32018799 5.52050129 -1 2 C-0.67 1.34 -0.34 0.68 0 0 Z " fill="#5F89CC" transform="translate(191,79)"/>
<path d="M0 0 C2.31 0 4.62 0 7 0 C7.33 0.99 7.66 1.98 8 3 C5.36 2.67 2.72 2.34 0 2 C0 3.32 0 4.64 0 6 C-0.66 6 -1.32 6 -2 6 C-1.34 4.02 -0.68 2.04 0 0 Z " fill="#668ED5" transform="translate(171,46)"/>
<path d="M0 0 C0.66 1.32 1.32 2.64 2 4 C0.5199159 3.88637738 -0.95910074 3.75877092 -2.4375 3.625 C-3.26121094 3.55539063 -4.08492187 3.48578125 -4.93359375 3.4140625 C-5.61550781 3.27742188 -6.29742187 3.14078125 -7 3 C-7.33 2.34 -7.66 1.68 -8 1 C-5.36 0.67 -2.72 0.34 0 0 Z " fill="#DDF0FB" transform="translate(174,15)"/>
<path d="M0 0 C2.64 0 5.28 0 8 0 C8.33 0.66 8.66 1.32 9 2 C6.29120665 3.35439668 3.99066732 3.06501451 1 3 C0.67 2.01 0.34 1.02 0 0 Z " fill="#6F93D1" transform="translate(204,92)"/>
<path d="M0 0 C1.5625 1.125 1.5625 1.125 3 3 C2.77669287 6.64734979 2.61627165 8.38372835 0 11 C0 9.35 0 7.7 0 6 C-1.32 5.67 -2.64 5.34 -4 5 C-2.68 5 -1.36 5 0 5 C0 3.35 0 1.7 0 0 Z " fill="#E0F1FE" transform="translate(17,78)"/>
<path d="M0 0 C2.64 0 5.28 0 8 0 C8 0.66 8 1.32 8 2 C6.02 2 4.04 2 2 2 C1.67 3.32 1.34 4.64 1 6 C0 5 0 5 -0.0625 2.4375 C-0.041875 1.633125 -0.02125 0.82875 0 0 Z " fill="#5B81C5" transform="translate(258,79)"/>
<path d="M0 0 C-0.33 1.98 -0.66 3.96 -1 6 C-1.33 6 -1.66 6 -2 6 C-2.33 8.64 -2.66 11.28 -3 14 C-3.33 14 -3.66 14 -4 14 C-4 9.71 -4 5.42 -4 1 C-2 0 -2 0 0 0 Z " fill="#81A4E0" transform="translate(276,81)"/>
<path d="M0 0 C0.66 0.33 1.32 0.66 2 1 C2 2.65 2 4.3 2 6 C0.68 6.33 -0.64 6.66 -2 7 C-2.33 6.01 -2.66 5.02 -3 4 C-2.01 3.67 -1.02 3.34 0 3 C0 2.01 0 1.02 0 0 Z " fill="#6690DA" transform="translate(114,88)"/>
<path d="M0 0 C0.33 0.66 0.66 1.32 1 2 C1.66 2 2.32 2 3 2 C3.33 3.65 3.66 5.3 4 7 C3.01 7.66 2.02 8.32 1 9 C0.63877119 7.68942607 0.28619689 6.37646376 -0.0625 5.0625 C-0.35833984 3.96615234 -0.35833984 3.96615234 -0.66015625 2.84765625 C-0.77230469 2.23792969 -0.88445312 1.62820312 -1 1 C-0.67 0.67 -0.34 0.34 0 0 Z " fill="#4883E1" transform="translate(144,52)"/>
<path d="M0 0 C1.65 0 3.3 0 5 0 C4 3 4 3 2 4 C0.86649466 6.01669827 0.86649466 6.01669827 0 8 C0 5.36 0 2.72 0 0 Z " fill="#6B94D7" transform="translate(270,79)"/>
<path d="M0 0 C2.625 -0.1875 2.625 -0.1875 5 0 C5.33 0.99 5.66 1.98 6 3 C3.36 3 0.72 3 -2 3 C-1.34 2.01 -0.68 1.02 0 0 Z " fill="#7192CA" transform="translate(207,78)"/>
<path d="M0 0 C1.32 0 2.64 0 4 0 C4 1.32 4 2.64 4 4 C2.35 4 0.7 4 -1 4 C-1 1 -1 1 0 0 Z " fill="#5481CC" transform="translate(129,47)"/>
<path d="M0 0 C2.08954032 4.17908064 2.16552619 4.80410573 1 9 C0.01 9 -0.98 9 -2 9 C-1.34 6.03 -0.68 3.06 0 0 Z " fill="#6C8DCD" transform="translate(123,86)"/>
<path d="M0 0 C1.74627478 2.61941217 2.38722388 4.03824877 3 7 C1.68 7 0.36 7 -1 7 C-1.33 5.35 -1.66 3.7 -2 2 C-1.34 2 -0.68 2 0 2 C0 1.34 0 0.68 0 0 Z " fill="#7797D3" transform="translate(86,88)"/>
<path d="M0 0 C1.98 0 3.96 0 6 0 C6.33 0.99 6.66 1.98 7 3 C4.69 3 2.38 3 0 3 C0 2.01 0 1.02 0 0 Z " fill="#799AD2" transform="translate(290,92)"/>
<path d="M0 0 C0.33 0 0.66 0 1 0 C1 3.3 1 6.6 1 10 C0.67 9.01 0.34 8.02 0 7 C-0.66 7 -1.32 7 -2 7 C-1.34 4.69 -0.68 2.38 0 0 Z " fill="#BAD5FA" transform="translate(283,82)"/>
<path d="M0 0 C1.32 0.33 2.64 0.66 4 1 C4.33 2.65 4.66 4.3 5 6 C3.68 5.67 2.36 5.34 1 5 C0.67 3.35 0.34 1.7 0 0 Z " fill="#6B92CF" transform="translate(107,79)"/>
<path d="M0 0 C1.65 0 3.3 0 5 0 C6.35439668 2.70879335 6.06501451 5.00933268 6 8 C5.34 8 4.68 8 4 8 C4 6.35 4 4.7 4 3 C2.68 2.34 1.36 1.68 0 1 C0 0.67 0 0.34 0 0 Z " fill="#D6E9FC" transform="translate(226,78)"/>
</svg>
